<svg xmlns="http://www.w3.org/2000/svg" viewBox="0 0 24 24">
    <path d="M11.293,13.707l-4-4c-0.39-0.39-0.39-1.024,0-1.414l0,0c0.39-0.39,1.024-0.39,1.414,0l2.94,2.94 c0.195,0.195,0.512,0.195,0.707,0l6.808-6.808c0.242-0.242,0.174-0.649-0.13-0.807C18.274,3.224,17.413,3,16.5,3 C13.605,3,12,5.09,12,5.09s-1.516-1.974-4.259-2.085C5.903,2.931,4.218,3.846,3.109,5.313c-3.858,5.105,3.452,11.072,5.172,12.677 c1.029,0.96,2.3,2.098,3.057,2.773c0.379,0.338,0.944,0.338,1.323,0c0.758-0.675,2.028-1.813,3.057-2.773 C17.088,16.713,22,12.671,22,8.5c0-0.913-0.224-1.774-0.618-2.531c-0.158-0.304-0.564-0.373-0.807-0.13l-7.868,7.868 C12.317,14.097,11.683,14.097,11.293,13.707z"></path>
</svg>